<svg width="52" height="52" viewBox="0 0 52 52" fill="none" xmlns="http://www.w3.org/2000/svg">
<circle cx="25.7757" cy="26" r="25.7757" fill="#F55A51"/>
<path d="M22.5 32.5C23.7 32.5 25 34.5 25.5 35.5H26.5C26.9 35.5 28 33.5 28.5 32.5H31C32.6 32.5 34.3333 30.8333 35 30C35.1667 27.5 35.5 22.4 35.5 22C35.5 21.5 35 19.5 33.5 17.5C33 17.5 26 16.5 23 16.5C20 16.5 19.5 17.5 17.5 19C15.5 20.5 17 28 17 29.5C17 31 21 32.5 22.5 32.5Z" fill="white"/>
<path d="M21.928 16H30.0709C30.1015 16.0034 30.132 16.0087 30.1627 16.0098C30.5791 16.0271 30.9934 16.0632 31.4039 16.1368C32.0616 16.2554 32.6928 16.4516 33.2839 16.7687C33.782 17.0342 34.2283 17.3866 34.6017 17.809C35.126 18.4023 35.4724 19.0918 35.6911 19.8474C35.9013 20.5732 35.9935 21.3171 35.9964 22.0704C36.0025 23.6855 35.999 25.3006 35.999 26.9157C35.999 27.4539 35.963 27.9891 35.8716 28.52C35.7707 29.1049 35.6096 29.6713 35.3526 30.2083C34.8118 31.3384 33.9539 32.1361 32.8003 32.6211C32.0177 32.9502 31.1938 33.0947 30.351 33.1407C29.9992 33.1602 29.646 33.157 29.2933 33.1602C29.1882 33.1613 29.1091 33.1993 29.0463 33.283C28.5958 33.8842 28.1445 34.4849 27.6925 35.085C27.4883 35.3566 27.2478 35.5884 26.9455 35.7496C26.341 36.0716 25.7298 36.0841 25.1139 35.781C24.7847 35.6189 24.5249 35.3754 24.3065 35.0847C23.8571 34.4868 23.4075 33.8889 22.9577 33.2912C22.8923 33.2042 22.8035 33.1642 22.6963 33.1616C22.2392 33.1518 21.7821 33.1478 21.3252 33.1323C20.9107 33.1174 20.4976 33.075 20.0887 33.0052C19.6497 32.9312 19.2209 32.8203 18.8078 32.6526C18.3734 32.4767 17.9729 32.2435 17.6209 31.9331C17.1538 31.5215 16.8142 31.0187 16.5705 30.4494C16.3284 29.8838 16.1927 29.2904 16.1097 28.6836C16.0313 28.1132 16.001 27.5401 16.0008 26.9645C15.9999 25.4624 15.9998 23.96 16.0005 22.4572C16.0005 22.1822 16.0068 21.9073 16.0194 21.6323C16.0419 21.1214 16.1146 20.614 16.2365 20.1173C16.3961 19.467 16.6447 18.8549 17.0208 18.2971C17.4427 17.6704 17.9874 17.1773 18.6464 16.8069C19.1381 16.5305 19.6642 16.3446 20.2118 16.2171C20.683 16.1075 21.1619 16.0456 21.6454 16.0195C21.7396 16.0145 21.8338 16.0065 21.928 16ZM26.0722 17.391C24.8571 17.391 23.6421 17.391 22.4272 17.391C22.0824 17.391 21.7383 17.4008 21.3949 17.434C20.8198 17.4891 20.2595 17.6058 19.7249 17.8298C19.038 18.117 18.4847 18.5633 18.0955 19.2019C17.7647 19.7446 17.5874 20.3405 17.4876 20.9628C17.4173 21.4026 17.3943 21.8463 17.3941 22.2912C17.3935 23.8184 17.3935 25.3456 17.3941 26.8726C17.3941 27.5114 17.4235 28.1482 17.5353 28.7785C17.6288 29.3075 17.7724 29.8193 18.049 30.2858C18.2024 30.5444 18.3921 30.7729 18.6282 30.9614C18.9495 31.2181 19.3181 31.3801 19.7098 31.4946C20.2746 31.6597 20.8553 31.7223 21.4401 31.7463C21.8642 31.7636 22.2891 31.7582 22.7135 31.7688C23.2668 31.7827 23.7238 31.9999 24.0609 32.4412C24.5189 33.0408 24.9678 33.6473 25.4236 34.2483C25.4897 34.3349 25.5659 34.4134 25.6508 34.4819C25.8485 34.6409 26.0934 34.6469 26.3076 34.5104C26.4138 34.4427 26.4976 34.3526 26.5723 34.2528C27.0284 33.6456 27.4848 33.0386 27.9416 32.4318C28.1887 32.104 28.5128 31.8911 28.9163 31.8076C29.041 31.7825 29.168 31.7699 29.2953 31.7698C29.7855 31.768 30.2748 31.7712 30.7625 31.7112C31.2949 31.6455 31.8138 31.5295 32.3078 31.3165C33.0066 31.0153 33.5604 30.5487 33.9438 29.8878C34.2379 29.3807 34.4031 28.83 34.5 28.2564C34.5785 27.796 34.6034 27.3314 34.6035 26.8652C34.6039 25.343 34.6039 23.8208 34.6035 22.2985C34.6035 21.8307 34.5783 21.3646 34.5001 20.9025C34.4225 20.4431 34.2997 19.9977 34.1022 19.5739C33.7636 18.8479 33.2395 18.3016 32.5205 17.9417C31.9831 17.6725 31.4092 17.5301 30.8159 17.4552C30.4118 17.4042 30.0057 17.3905 29.5988 17.3904L26.0722 17.391Z" fill="white"/>
<path d="M26.0007 25.9719C25.7536 25.9726 25.5163 25.8756 25.3409 25.7021C25.1655 25.5286 25.0663 25.2928 25.065 25.0465C25.0614 24.5365 25.4777 24.121 25.9958 24.118C26.1185 24.117 26.2402 24.1402 26.3539 24.1863C26.4676 24.2324 26.571 24.3005 26.6582 24.3866C26.7454 24.4727 26.8146 24.5752 26.8619 24.6881C26.9092 24.801 26.9336 24.9222 26.9337 25.0445C26.9356 25.5539 26.5168 25.9704 26.0007 25.9719Z" fill="#F55A51"/>
<path d="M22.2777 25.9719C21.7638 25.9732 21.3416 25.5554 21.3422 25.0459C21.3422 24.5331 21.7565 24.1208 22.2736 24.1174C22.3963 24.1165 22.518 24.1398 22.6316 24.186C22.7453 24.2321 22.8486 24.3003 22.9357 24.3865C23.0228 24.4726 23.092 24.5752 23.1392 24.6881C23.1864 24.801 23.2107 24.9222 23.2107 25.0445C23.2107 25.5568 22.7941 25.9705 22.2777 25.9719Z" fill="#F55A51"/>
<path d="M29.7211 25.972C29.2051 25.9708 28.7867 25.5553 28.7875 25.0448C28.7875 24.9225 28.8119 24.8013 28.8591 24.6884C28.9063 24.5754 28.9754 24.4729 29.0625 24.3867C29.1496 24.3005 29.253 24.2323 29.3667 24.1862C29.4803 24.14 29.602 24.1167 29.7248 24.1176C30.2421 24.1205 30.6569 24.5336 30.6568 25.0461C30.6566 25.5555 30.2346 25.9731 29.7211 25.972Z" fill="#F55A51"/>
</svg>
