<svg width="24" height="23" viewBox="0 0 24 23" fill="none" xmlns="http://www.w3.org/2000/svg">
<path d="M19.8753 19.9033C20.7853 19.9033 21.2229 19.4638 21.2236 18.5462C21.2236 16.7443 21.2291 14.9425 21.2184 13.1407C21.2184 12.8942 21.2831 12.7451 21.489 12.5963C23.0992 11.4357 23.9719 9.83687 23.9994 7.86354C24.0421 4.74779 21.7658 2.31158 18.9495 1.96661C18.2458 1.88021 17.5142 1.9822 16.8001 2.04879C16.5735 2.06991 16.444 2.04165 16.2925 1.88118C15.1174 0.641312 13.6694 -0.00931916 11.9667 0.000100855C10.2912 0.00952087 8.8675 0.661776 7.70958 1.87858C7.55776 2.03807 7.43572 2.09427 7.20265 2.04327C3.94643 1.3319 0.847534 3.28606 0.137634 6.54506C-0.352465 8.79482 0.472353 11.142 2.51562 12.5995C2.72118 12.7464 2.79725 12.8942 2.79563 13.1433C2.78592 14.9451 2.78981 16.7469 2.79078 18.5488C2.79078 19.4823 3.20869 19.903 4.13192 19.9033H19.8753ZM4.27661 18.4546V17.9598C4.27661 16.1704 4.2682 14.3812 4.28115 12.5917C4.286 11.9096 4.01635 11.4513 3.39968 11.1352C1.44511 10.1338 0.648128 7.82846 1.54805 5.8678C2.46739 3.86556 4.74664 2.97683 6.79218 3.82138C7.62865 4.16732 8.11746 4.01985 8.6095 3.27339C10.2604 0.767995 13.7636 0.77644 15.4036 3.28964C15.8759 4.01335 16.3789 4.16147 17.1921 3.82982C18.0137 3.49688 18.8524 3.38319 19.7264 3.61057C21.3592 4.03284 22.6155 5.41693 22.7848 6.9995C22.9749 8.77566 22.1497 10.3576 20.5881 11.1485C20.0032 11.4448 19.7309 11.8693 19.7387 12.5359C19.7594 14.3507 19.7458 16.1661 19.7458 17.9816V18.4546H4.27661Z" fill="#BDBDBD"/>
<path d="M12.0272 22.9979C14.7615 22.9979 17.496 22.9979 20.2308 22.9979C20.8335 22.9979 21.2618 22.7537 21.3385 22.3856C21.4032 22.0696 21.0368 21.7512 20.4943 21.6678C20.3334 21.6459 20.171 21.6361 20.0087 21.6385C14.9855 21.6368 9.96261 21.6368 4.9399 21.6385C4.55145 21.6385 4.16493 21.6327 3.7781 21.6402C3.2553 21.6502 2.79887 21.8757 2.70273 22.1599C2.59169 22.4847 2.81409 22.8095 3.28217 22.9339C3.4764 22.9862 3.71271 22.9989 3.9296 22.9989C6.62871 23.0006 9.32792 23.0003 12.0272 22.9979Z" fill="#BDBDBD"/>
</svg>
