<svg width="52" height="52" viewBox="0 0 52 52" fill="none" xmlns="http://www.w3.org/2000/svg">
<path d="M51.5514 26C51.5514 40.2355 40.0112 51.7757 25.7757 51.7757C11.5402 51.7757 0 40.2355 0 26C0 11.7645 11.5402 0.224304 25.7757 0.224304C40.0112 0.224304 51.5514 11.7645 51.5514 26Z" fill="#F55A51"/>
<path d="M36.1053 22.8931C36.1053 24.4477 35.5084 25.9409 34.4424 27.0455C31.9886 29.5889 29.6087 32.2411 27.0632 34.6923C26.4798 35.246 25.5542 35.2258 24.9959 34.6471L17.6625 27.0455C15.4458 24.7478 15.4458 21.0384 17.6625 18.7407C19.9009 16.4204 23.5475 16.4204 25.7858 18.7407L26.0524 19.017L26.3188 18.7408C27.3921 17.6278 28.8537 17 30.3806 17C31.9075 17 33.3691 17.6277 34.4424 18.7407C35.5085 19.8453 36.1053 21.3385 36.1053 22.8931Z" fill="white"/>
</svg>
