<svg width="52" height="52" viewBox="0 0 52 52" fill="none" xmlns="http://www.w3.org/2000/svg">
<path d="M51.5514 26C51.5514 40.2355 40.0112 51.7757 25.7757 51.7757C11.5402 51.7757 0 40.2355 0 26C0 11.7645 11.5402 0.224304 25.7757 0.224304C40.0112 0.224304 51.5514 11.7645 51.5514 26Z" fill="#F55A51"/>
<path d="M18 35.4721V34.3176C18 29.8543 21.6182 26.2361 26.0815 26.2361C30.5449 26.2361 34.1631 29.8543 34.1631 34.3176V35.4721" fill="white"/>
<path d="M26.0815 26.2361C28.632 26.2361 30.6996 24.1684 30.6996 21.618C30.6996 19.0676 28.632 17 26.0815 17C23.5311 17 21.4635 19.0676 21.4635 21.618C21.4635 24.1684 23.5311 26.2361 26.0815 26.2361Z" fill="white"/>
</svg>
