<svg width="52" height="52" viewBox="0 0 52 52" fill="none" xmlns="http://www.w3.org/2000/svg">
<path d="M51.5514 26C51.5514 40.2355 40.0112 51.7757 25.7757 51.7757C11.5402 51.7757 0 40.2355 0 26C0 11.7645 11.5402 0.224304 25.7757 0.224304C40.0112 0.224304 51.5514 11.7645 51.5514 26Z" fill="#F55A51"/>
<path d="M34.521 25.0884V30.6068C34.521 32.8897 32.6624 34.7453 30.3785 34.7453H28.0771V30.6056C28.0771 29.3385 27.0442 28.3081 25.7757 28.3081C24.5072 28.3081 23.4743 29.3385 23.4743 30.6056V34.7453H21.1729C18.889 34.7453 17.0304 32.8888 17.0304 30.6068V25.0884C17.0304 23.8295 17.5938 22.6536 18.5751 21.8634L23.1779 18.1622C24.6821 16.9521 26.8666 16.9521 28.3726 18.1622L32.9754 21.8634C33.9577 22.6536 34.521 23.8286 34.521 25.0884Z" fill="white"/>
</svg>
