<svg width="52" height="52" viewBox="0 0 52 52" fill="none" xmlns="http://www.w3.org/2000/svg">
<path d="M51.5514 26.0001C51.5514 40.2356 40.0112 51.7758 25.7757 51.7758C11.5402 51.7758 0 40.2356 0 26.0001C0 11.7645 11.5402 0.224365 25.7757 0.224365C40.0112 0.224365 51.5514 11.7645 51.5514 26.0001Z" fill="#F55A51"/>
<path d="M33.8753 33.9034C34.7853 33.9034 35.2229 33.4639 35.2236 32.5462C35.2236 30.7444 35.2291 28.9426 35.2184 27.1408C35.2184 26.8942 35.2831 26.7451 35.489 26.5963C37.0992 25.4357 37.9719 23.8369 37.9994 21.8636C38.0421 18.7479 35.7658 16.3116 32.9495 15.9667C32.2458 15.8803 31.5142 15.9823 30.8001 16.0489C30.5735 16.07 30.444 16.0417 30.2925 15.8812C29.1174 14.6414 27.6694 13.9907 25.9667 14.0002C24.2912 14.0096 22.8675 14.6618 21.7096 15.8786C21.5578 16.0381 21.4357 16.0943 21.2026 16.0433C17.9464 15.332 14.8475 17.2861 14.1376 20.5451C13.6475 22.7949 14.4724 25.1421 16.5156 26.5996C16.7212 26.7464 16.7972 26.8942 16.7956 27.1434C16.7859 28.9452 16.7898 30.747 16.7908 32.5488C16.7908 33.4824 17.2087 33.903 18.1319 33.9034H33.8753ZM18.2766 32.4546V31.9599C18.2766 30.1704 18.2682 28.3813 18.2811 26.5918C18.286 25.9097 18.0164 25.4513 17.3997 25.1353C15.4451 24.1338 14.6481 21.8285 15.548 19.8679C16.4674 17.8656 18.7466 16.9769 20.7922 17.8214C21.6287 18.1674 22.1175 18.0199 22.6095 17.2735C24.2604 14.7681 27.7636 14.7765 29.4036 17.2897C29.8759 18.0134 30.3789 18.1615 31.1921 17.8299C32.0137 17.4969 32.8524 17.3832 33.7264 17.6106C35.3592 18.0329 36.6155 19.417 36.7848 20.9996C36.9749 22.7757 36.1497 24.3576 34.5881 25.1486C34.0032 25.4448 33.7309 25.8694 33.7387 26.5359C33.7594 28.3507 33.7458 30.1662 33.7458 31.9817V32.4546H18.2766Z" fill="white"/>
<path d="M26.0272 36.998C28.7615 36.998 31.496 36.998 34.2308 36.998C34.8335 36.998 35.2618 36.7537 35.3385 36.3857C35.4032 36.0696 35.0368 35.7513 34.4943 35.6678C34.3333 35.646 34.171 35.6362 34.0087 35.6386C28.9855 35.6369 23.9626 35.6369 18.9399 35.6386C18.5514 35.6386 18.1649 35.6327 17.7781 35.6402C17.2553 35.6503 16.7989 35.8757 16.7027 36.1599C16.5917 36.4848 16.8141 36.8096 17.2822 36.934C17.4764 36.9863 17.7127 36.999 17.9296 36.999C20.6287 37.0007 23.3279 37.0004 26.0272 36.998Z" fill="white"/>
<path d="M18.2766 32.4546V31.9599C18.2766 30.1704 18.2682 28.3813 18.2811 26.5918C18.286 25.9097 18.0164 25.4513 17.3997 25.1353C15.4451 24.1338 14.6481 21.8285 15.548 19.8679C16.4674 17.8656 18.7466 16.9769 20.7922 17.8214C21.6287 18.1674 22.1175 18.0199 22.6095 17.2735C24.2604 14.7681 27.7636 14.7765 29.4036 17.2897C29.8759 18.0134 30.3789 18.1615 31.1921 17.8299C32.0137 17.4969 32.8524 17.3832 33.7264 17.6106C35.3592 18.0329 36.6155 19.417 36.7848 20.9996C36.9749 22.7757 36.1497 24.3576 34.5881 25.1486C34.0032 25.4448 33.7309 25.8694 33.7387 26.5359C33.7594 28.3507 33.7458 30.1662 33.7458 31.9817V32.4546H18.2766Z" fill="white"/>
</svg>
