<svg width="20" height="20" viewBox="0 0 20 20" fill="none" xmlns="http://www.w3.org/2000/svg">
<path d="M5.92797 0H14.0709C14.1015 0.00342085 14.132 0.00869873 14.1627 0.00977385C14.5791 0.0270736 14.9934 0.0632368 15.4039 0.136834C16.0616 0.255391 16.6928 0.451552 17.2839 0.768714C17.782 1.0342 18.2283 1.38655 18.6017 1.80904C19.126 2.40232 19.4724 3.09176 19.6911 3.84738C19.9013 4.57319 19.9935 5.31707 19.9964 6.07044C20.0025 7.68547 19.999 9.3006 19.999 10.9157C19.999 11.4539 19.963 11.9891 19.8716 12.52C19.7707 13.1049 19.6096 13.6713 19.3526 14.2083C18.8118 15.3384 17.9539 16.1361 16.8003 16.6211C16.0177 16.9502 15.1938 17.0947 14.351 17.1407C13.9992 17.1602 13.6459 17.157 13.2933 17.1602C13.1882 17.1613 13.1091 17.1993 13.0463 17.283C12.5958 17.8842 12.1445 18.4849 11.6925 19.085C11.4883 19.3566 11.2478 19.5884 10.9455 19.7496C10.341 20.0716 9.72981 20.0841 9.11393 19.781C8.78472 19.6189 8.52491 19.3754 8.30648 19.0847C7.85708 18.4868 7.40747 17.8889 6.95767 17.2912C6.89228 17.2042 6.80346 17.1642 6.6963 17.1616C6.23925 17.1518 5.78209 17.1478 5.32523 17.1323C4.91067 17.1174 4.49756 17.075 4.08868 17.0052C3.64966 16.9312 3.22094 16.8203 2.8078 16.6526C2.3734 16.4767 1.97291 16.2435 1.62085 15.9331C1.1538 15.5215 0.814193 15.0187 0.57047 14.4494C0.328413 13.8838 0.192728 13.2904 0.109689 12.6836C0.0312586 12.1132 0.000964698 11.5401 0.000768621 10.9645C-0.000146404 9.46239 -0.000244442 7.95996 0.000474506 6.45719C0.000474506 6.18222 0.00678164 5.90725 0.0193959 5.63228C0.0419369 5.12144 0.114637 4.61404 0.236453 4.11733C0.396059 3.46698 0.644685 2.85494 1.02076 2.29705C1.44272 1.67045 1.98742 1.17726 2.64643 0.806929C3.1381 0.530525 3.66417 0.344626 4.21181 0.217077C4.68298 0.107512 5.1619 0.0456439 5.64543 0.0195477C5.73964 0.0144653 5.83376 0.00654848 5.92797 0ZM10.0722 1.39101C8.85713 1.39101 7.64214 1.39101 6.42719 1.39101C6.08239 1.39101 5.73827 1.40079 5.39494 1.43402C4.81985 1.48914 4.25946 1.60584 3.72486 1.82976C3.038 2.11702 2.48467 2.56329 2.09546 3.20191C1.76468 3.74456 1.58742 4.34047 1.48762 4.96277C1.41733 5.4026 1.39429 5.84633 1.39409 6.29123C1.3935 7.81843 1.3935 9.34556 1.39409 10.8726C1.39409 11.5114 1.4235 12.1482 1.53527 12.7785C1.62879 13.3075 1.77242 13.8193 2.04899 14.2858C2.20242 14.5444 2.39212 14.7729 2.6282 14.9614C2.94947 15.2181 3.31809 15.3801 3.70976 15.4946C4.27456 15.6597 4.85534 15.7223 5.44014 15.7463C5.86415 15.7636 6.28905 15.7582 6.71346 15.7688C7.26679 15.7827 7.72384 15.9999 8.0609 16.4412C8.51893 17.0408 8.96775 17.6473 9.42363 18.2483C9.48967 18.3349 9.56593 18.4134 9.65079 18.4819C9.84853 18.6409 10.0934 18.6469 10.3076 18.5104C10.4138 18.4427 10.4976 18.3526 10.5723 18.2528C11.0284 17.6456 11.4848 17.0386 11.9416 16.4318C12.1887 16.104 12.5128 15.8911 12.9162 15.8076C13.041 15.7825 13.168 15.7699 13.2953 15.7698C13.7855 15.768 14.2748 15.7712 14.7625 15.7112C15.2949 15.6455 15.8138 15.5295 16.3078 15.3165C17.0066 15.0153 17.5604 14.5487 17.9438 13.8878C18.2379 13.3807 18.4031 12.83 18.5 12.2564C18.5785 11.796 18.6034 11.3314 18.6035 10.8652C18.6039 9.34302 18.6039 7.82078 18.6035 6.29847C18.6035 5.83069 18.5783 5.36458 18.5001 4.90247C18.4225 4.4431 18.2997 3.9977 18.1022 3.57391C17.7636 2.84791 17.2394 2.30164 16.5205 1.94167C15.9831 1.6725 15.4092 1.5301 14.8159 1.45523C14.4118 1.40421 14.0057 1.39053 13.5988 1.39043L10.0722 1.39101Z" fill="#BDBDBD"/>
<path d="M10.0007 9.97187C9.75359 9.9726 9.5163 9.87557 9.34088 9.70209C9.16547 9.5286 9.06625 9.29282 9.065 9.04648C9.06138 8.53648 9.47765 8.121 9.99578 8.11797C10.1185 8.11696 10.2402 8.14018 10.3539 8.18628C10.4676 8.23238 10.571 8.30046 10.6582 8.38659C10.7454 8.47272 10.8146 8.57519 10.8619 8.68811C10.9092 8.80103 10.9336 8.92217 10.9337 9.04453C10.9356 9.55394 10.5168 9.97041 10.0007 9.97187Z" fill="#BDBDBD"/>
<path d="M6.27767 9.97187C5.76376 9.97324 5.3416 9.55541 5.34219 9.0459C5.34219 8.53306 5.7565 8.1208 6.27356 8.11738C6.39628 8.11647 6.51797 8.13977 6.63162 8.18595C6.74526 8.23213 6.84862 8.30028 6.93573 8.38646C7.02285 8.47264 7.09199 8.57516 7.13918 8.6881C7.18638 8.80104 7.21068 8.92218 7.21071 9.04453C7.21071 9.55678 6.79414 9.9705 6.27767 9.97187Z" fill="#BDBDBD"/>
<path d="M13.7211 9.97197C13.2051 9.9708 12.7867 9.55531 12.7875 9.04482C12.7875 8.92246 12.8119 8.80131 12.8591 8.68836C12.9063 8.5754 12.9754 8.47287 13.0625 8.38668C13.1496 8.30049 13.253 8.23234 13.3667 8.18615C13.4803 8.13997 13.602 8.11666 13.7248 8.11758C14.2421 8.12051 14.6569 8.53355 14.6568 9.04609C14.6566 9.55551 14.2346 9.97314 13.7211 9.97197Z" fill="#BDBDBD"/>
</svg>
